<mxfile compressed="false" host="Electron" modified="2021-10-04T12:17:12.235Z" agent="5.0 (Windows NT 10.0; Win64; x64) AppleWebKit/537.36 (KHTML, like Gecko) draw.io/15.3.8 Chrome/94.0.4606.51 Electron/15.0.0 Safari/537.36" version="15.4.1" etag="A2oEYrB_XS_a_ALlQDeB" type="device">
  <diagram id="L4o9AsP4WY-ffHVRRGaX" name="Page-1">
    <mxGraphModel dx="1010" dy="599" grid="0" gridSize="10" guides="1" tooltips="1" connect="1" arrows="1" fold="1" page="1" pageScale="1" pageWidth="827" pageHeight="1169" math="0" shadow="0">
      <root>
        <mxCell id="0" />
        <mxCell id="1" parent="0" />
        <mxCell id="dMtqJhVQcQkY8aE9VR1s-1" value="" style="rounded=0;whiteSpace=wrap;html=1;" parent="1" vertex="1">
          <mxGeometry x="120" y="390" width="80" height="40" as="geometry" />
        </mxCell>
        <mxCell id="dMtqJhVQcQkY8aE9VR1s-2" value="" style="rounded=0;whiteSpace=wrap;html=1;" parent="1" vertex="1">
          <mxGeometry x="200" y="390" width="80" height="40" as="geometry" />
        </mxCell>
        <mxCell id="dMtqJhVQcQkY8aE9VR1s-3" value="" style="rounded=0;whiteSpace=wrap;html=1;" parent="1" vertex="1">
          <mxGeometry x="280" y="390" width="80" height="40" as="geometry" />
        </mxCell>
        <mxCell id="dMtqJhVQcQkY8aE9VR1s-4" value="" style="rounded=0;whiteSpace=wrap;html=1;" parent="1" vertex="1">
          <mxGeometry x="360" y="390" width="80" height="40" as="geometry" />
        </mxCell>
        <mxCell id="dMtqJhVQcQkY8aE9VR1s-5" value="" style="rounded=0;whiteSpace=wrap;html=1;sketch=1;strokeWidth=2;" parent="1" vertex="1">
          <mxGeometry x="440" y="390" width="80" height="40" as="geometry" />
        </mxCell>
        <mxCell id="dMtqJhVQcQkY8aE9VR1s-6" value="" style="rounded=0;whiteSpace=wrap;html=1;" parent="1" vertex="1">
          <mxGeometry x="200" y="350" width="80" height="40" as="geometry" />
        </mxCell>
        <mxCell id="dMtqJhVQcQkY8aE9VR1s-7" value="" style="rounded=0;whiteSpace=wrap;html=1;" parent="1" vertex="1">
          <mxGeometry x="280" y="310" width="80" height="40" as="geometry" />
        </mxCell>
        <mxCell id="dMtqJhVQcQkY8aE9VR1s-8" value="" style="rounded=0;whiteSpace=wrap;html=1;" parent="1" vertex="1">
          <mxGeometry x="280" y="350" width="80" height="40" as="geometry" />
        </mxCell>
        <mxCell id="dMtqJhVQcQkY8aE9VR1s-9" value="" style="rounded=0;whiteSpace=wrap;html=1;" parent="1" vertex="1">
          <mxGeometry x="360" y="350" width="80" height="40" as="geometry" />
        </mxCell>
        <mxCell id="dMtqJhVQcQkY8aE9VR1s-10" value="" style="rounded=0;whiteSpace=wrap;html=1;" parent="1" vertex="1">
          <mxGeometry x="360" y="310" width="80" height="40" as="geometry" />
        </mxCell>
        <mxCell id="dMtqJhVQcQkY8aE9VR1s-11" value="" style="rounded=0;whiteSpace=wrap;html=1;" parent="1" vertex="1">
          <mxGeometry x="360" y="270" width="80" height="40" as="geometry" />
        </mxCell>
        <mxCell id="dMtqJhVQcQkY8aE9VR1s-12" value="" style="rounded=0;whiteSpace=wrap;html=1;" parent="1" vertex="1">
          <mxGeometry x="440" y="270" width="80" height="40" as="geometry" />
        </mxCell>
        <mxCell id="dMtqJhVQcQkY8aE9VR1s-13" value="" style="rounded=0;whiteSpace=wrap;html=1;" parent="1" vertex="1">
          <mxGeometry x="440" y="310" width="80" height="40" as="geometry" />
        </mxCell>
        <mxCell id="dMtqJhVQcQkY8aE9VR1s-14" value="" style="rounded=0;whiteSpace=wrap;html=1;" parent="1" vertex="1">
          <mxGeometry x="440" y="350" width="80" height="40" as="geometry" />
        </mxCell>
        <mxCell id="dMtqJhVQcQkY8aE9VR1s-15" value="" style="rounded=0;whiteSpace=wrap;html=1;" parent="1" vertex="1">
          <mxGeometry x="440" y="230" width="80" height="40" as="geometry" />
        </mxCell>
        <mxCell id="dMtqJhVQcQkY8aE9VR1s-16" value="" style="rounded=0;whiteSpace=wrap;html=1;" parent="1" vertex="1">
          <mxGeometry x="520" y="190" width="80" height="40" as="geometry" />
        </mxCell>
        <mxCell id="dMtqJhVQcQkY8aE9VR1s-17" value="" style="rounded=0;whiteSpace=wrap;html=1;" parent="1" vertex="1">
          <mxGeometry x="520" y="230" width="80" height="40" as="geometry" />
        </mxCell>
        <mxCell id="dMtqJhVQcQkY8aE9VR1s-18" value="" style="rounded=0;whiteSpace=wrap;html=1;" parent="1" vertex="1">
          <mxGeometry x="520" y="270" width="80" height="40" as="geometry" />
        </mxCell>
        <mxCell id="dMtqJhVQcQkY8aE9VR1s-19" value="" style="rounded=0;whiteSpace=wrap;html=1;" parent="1" vertex="1">
          <mxGeometry x="520" y="310" width="80" height="40" as="geometry" />
        </mxCell>
        <mxCell id="dMtqJhVQcQkY8aE9VR1s-20" value="" style="rounded=0;whiteSpace=wrap;html=1;" parent="1" vertex="1">
          <mxGeometry x="520" y="350" width="80" height="40" as="geometry" />
        </mxCell>
        <mxCell id="dMtqJhVQcQkY8aE9VR1s-21" value="" style="rounded=0;whiteSpace=wrap;html=1;" parent="1" vertex="1">
          <mxGeometry x="520" y="390" width="80" height="40" as="geometry" />
        </mxCell>
        <mxCell id="dMtqJhVQcQkY8aE9VR1s-23" value="" style="shape=umlActor;verticalLabelPosition=bottom;verticalAlign=top;html=1;outlineConnect=0;sketch=1;strokeWidth=2;" parent="1" vertex="1">
          <mxGeometry x="385" y="200" width="30" height="60" as="geometry" />
        </mxCell>
        <mxCell id="dMtqJhVQcQkY8aE9VR1s-25" value="" style="rounded=0;whiteSpace=wrap;html=1;" parent="1" vertex="1">
          <mxGeometry x="520" y="190" width="80" height="40" as="geometry" />
        </mxCell>
        <mxCell id="dMtqJhVQcQkY8aE9VR1s-26" value="" style="rounded=0;whiteSpace=wrap;html=1;" parent="1" vertex="1">
          <mxGeometry x="520" y="230" width="80" height="40" as="geometry" />
        </mxCell>
        <mxCell id="dMtqJhVQcQkY8aE9VR1s-27" value="" style="rounded=0;whiteSpace=wrap;html=1;" parent="1" vertex="1">
          <mxGeometry x="440" y="230" width="80" height="40" as="geometry" />
        </mxCell>
        <mxCell id="dMtqJhVQcQkY8aE9VR1s-28" value="" style="rounded=0;whiteSpace=wrap;html=1;" parent="1" vertex="1">
          <mxGeometry x="360" y="270" width="80" height="40" as="geometry" />
        </mxCell>
        <mxCell id="dMtqJhVQcQkY8aE9VR1s-29" value="" style="rounded=0;whiteSpace=wrap;html=1;" parent="1" vertex="1">
          <mxGeometry x="440" y="270" width="80" height="40" as="geometry" />
        </mxCell>
        <mxCell id="dMtqJhVQcQkY8aE9VR1s-30" value="" style="rounded=0;whiteSpace=wrap;html=1;sketch=1;strokeWidth=2;" parent="1" vertex="1">
          <mxGeometry x="520" y="270" width="80" height="40" as="geometry" />
        </mxCell>
        <mxCell id="dMtqJhVQcQkY8aE9VR1s-31" value="" style="rounded=0;whiteSpace=wrap;html=1;" parent="1" vertex="1">
          <mxGeometry x="520" y="310" width="80" height="40" as="geometry" />
        </mxCell>
        <mxCell id="dMtqJhVQcQkY8aE9VR1s-32" value="" style="rounded=0;whiteSpace=wrap;html=1;" parent="1" vertex="1">
          <mxGeometry x="440" y="310" width="80" height="40" as="geometry" />
        </mxCell>
        <mxCell id="dMtqJhVQcQkY8aE9VR1s-33" value="" style="rounded=0;whiteSpace=wrap;html=1;" parent="1" vertex="1">
          <mxGeometry x="360" y="310" width="80" height="40" as="geometry" />
        </mxCell>
        <mxCell id="dMtqJhVQcQkY8aE9VR1s-34" value="" style="rounded=0;whiteSpace=wrap;html=1;" parent="1" vertex="1">
          <mxGeometry x="280" y="310" width="80" height="40" as="geometry" />
        </mxCell>
        <mxCell id="dMtqJhVQcQkY8aE9VR1s-35" value="" style="rounded=0;whiteSpace=wrap;html=1;" parent="1" vertex="1">
          <mxGeometry x="200" y="350" width="80" height="40" as="geometry" />
        </mxCell>
        <mxCell id="dMtqJhVQcQkY8aE9VR1s-36" value="" style="rounded=0;whiteSpace=wrap;html=1;" parent="1" vertex="1">
          <mxGeometry x="280" y="350" width="80" height="40" as="geometry" />
        </mxCell>
        <mxCell id="dMtqJhVQcQkY8aE9VR1s-37" value="" style="rounded=0;whiteSpace=wrap;html=1;sketch=1;strokeWidth=2;" parent="1" vertex="1">
          <mxGeometry x="280" y="390" width="80" height="40" as="geometry" />
        </mxCell>
        <mxCell id="dMtqJhVQcQkY8aE9VR1s-38" value="" style="rounded=0;whiteSpace=wrap;html=1;sketch=1;strokeWidth=2;" parent="1" vertex="1">
          <mxGeometry x="200" y="390" width="80" height="40" as="geometry" />
        </mxCell>
        <mxCell id="dMtqJhVQcQkY8aE9VR1s-39" value="&lt;font style=&quot;font-size: 18px&quot;&gt;&lt;b&gt;......&lt;/b&gt;&lt;/font&gt;" style="rounded=0;whiteSpace=wrap;html=1;sketch=1;strokeWidth=2;" parent="1" vertex="1">
          <mxGeometry x="120" y="390" width="80" height="40" as="geometry" />
        </mxCell>
        <mxCell id="dMtqJhVQcQkY8aE9VR1s-41" value="" style="rounded=0;whiteSpace=wrap;html=1;" parent="1" vertex="1">
          <mxGeometry x="520" y="190" width="80" height="40" as="geometry" />
        </mxCell>
        <mxCell id="dMtqJhVQcQkY8aE9VR1s-42" value="" style="rounded=0;whiteSpace=wrap;html=1;" parent="1" vertex="1">
          <mxGeometry x="520" y="230" width="80" height="40" as="geometry" />
        </mxCell>
        <mxCell id="dMtqJhVQcQkY8aE9VR1s-43" value="" style="rounded=0;whiteSpace=wrap;html=1;" parent="1" vertex="1">
          <mxGeometry x="440" y="230" width="80" height="40" as="geometry" />
        </mxCell>
        <mxCell id="dMtqJhVQcQkY8aE9VR1s-44" value="" style="rounded=0;whiteSpace=wrap;html=1;" parent="1" vertex="1">
          <mxGeometry x="440" y="270" width="80" height="40" as="geometry" />
        </mxCell>
        <mxCell id="dMtqJhVQcQkY8aE9VR1s-45" value="" style="rounded=0;whiteSpace=wrap;html=1;" parent="1" vertex="1">
          <mxGeometry x="360" y="270" width="80" height="40" as="geometry" />
        </mxCell>
        <mxCell id="dMtqJhVQcQkY8aE9VR1s-46" value="" style="rounded=0;whiteSpace=wrap;html=1;" parent="1" vertex="1">
          <mxGeometry x="360" y="310" width="80" height="40" as="geometry" />
        </mxCell>
        <mxCell id="dMtqJhVQcQkY8aE9VR1s-47" value="" style="rounded=0;whiteSpace=wrap;html=1;" parent="1" vertex="1">
          <mxGeometry x="520" y="190" width="80" height="40" as="geometry" />
        </mxCell>
        <mxCell id="dMtqJhVQcQkY8aE9VR1s-48" value="" style="rounded=0;whiteSpace=wrap;html=1;" parent="1" vertex="1">
          <mxGeometry x="520" y="230" width="80" height="40" as="geometry" />
        </mxCell>
        <mxCell id="dMtqJhVQcQkY8aE9VR1s-49" value="" style="rounded=0;whiteSpace=wrap;html=1;" parent="1" vertex="1">
          <mxGeometry x="440" y="230" width="80" height="40" as="geometry" />
        </mxCell>
        <mxCell id="dMtqJhVQcQkY8aE9VR1s-50" value="" style="rounded=0;whiteSpace=wrap;html=1;" parent="1" vertex="1">
          <mxGeometry x="440" y="270" width="80" height="40" as="geometry" />
        </mxCell>
        <mxCell id="dMtqJhVQcQkY8aE9VR1s-51" value="" style="rounded=0;whiteSpace=wrap;html=1;" parent="1" vertex="1">
          <mxGeometry x="360" y="270" width="80" height="40" as="geometry" />
        </mxCell>
        <mxCell id="dMtqJhVQcQkY8aE9VR1s-52" value="" style="rounded=0;whiteSpace=wrap;html=1;" parent="1" vertex="1">
          <mxGeometry x="360" y="310" width="80" height="40" as="geometry" />
        </mxCell>
        <mxCell id="dMtqJhVQcQkY8aE9VR1s-53" value="" style="rounded=0;whiteSpace=wrap;html=1;" parent="1" vertex="1">
          <mxGeometry x="520" y="310" width="80" height="40" as="geometry" />
        </mxCell>
        <mxCell id="dMtqJhVQcQkY8aE9VR1s-54" value="" style="rounded=0;whiteSpace=wrap;html=1;" parent="1" vertex="1">
          <mxGeometry x="520" y="350" width="80" height="40" as="geometry" />
        </mxCell>
        <mxCell id="dMtqJhVQcQkY8aE9VR1s-55" value="" style="rounded=0;whiteSpace=wrap;html=1;" parent="1" vertex="1">
          <mxGeometry x="440" y="350" width="80" height="40" as="geometry" />
        </mxCell>
        <mxCell id="dMtqJhVQcQkY8aE9VR1s-56" value="" style="rounded=0;whiteSpace=wrap;html=1;" parent="1" vertex="1">
          <mxGeometry x="520" y="190" width="80" height="40" as="geometry" />
        </mxCell>
        <mxCell id="dMtqJhVQcQkY8aE9VR1s-57" value="" style="rounded=0;whiteSpace=wrap;html=1;" parent="1" vertex="1">
          <mxGeometry x="520" y="230" width="80" height="40" as="geometry" />
        </mxCell>
        <mxCell id="dMtqJhVQcQkY8aE9VR1s-58" value="" style="rounded=0;whiteSpace=wrap;html=1;" parent="1" vertex="1">
          <mxGeometry x="440" y="230" width="80" height="40" as="geometry" />
        </mxCell>
        <mxCell id="dMtqJhVQcQkY8aE9VR1s-59" value="" style="rounded=0;whiteSpace=wrap;html=1;" parent="1" vertex="1">
          <mxGeometry x="440" y="270" width="80" height="40" as="geometry" />
        </mxCell>
        <mxCell id="dMtqJhVQcQkY8aE9VR1s-60" value="" style="rounded=0;whiteSpace=wrap;html=1;" parent="1" vertex="1">
          <mxGeometry x="360" y="270" width="80" height="40" as="geometry" />
        </mxCell>
        <mxCell id="dMtqJhVQcQkY8aE9VR1s-61" value="" style="rounded=0;whiteSpace=wrap;html=1;" parent="1" vertex="1">
          <mxGeometry x="360" y="310" width="80" height="40" as="geometry" />
        </mxCell>
        <mxCell id="dMtqJhVQcQkY8aE9VR1s-62" value="" style="rounded=0;whiteSpace=wrap;html=1;" parent="1" vertex="1">
          <mxGeometry x="520" y="310" width="80" height="40" as="geometry" />
        </mxCell>
        <mxCell id="dMtqJhVQcQkY8aE9VR1s-63" value="" style="rounded=0;whiteSpace=wrap;html=1;" parent="1" vertex="1">
          <mxGeometry x="520" y="350" width="80" height="40" as="geometry" />
        </mxCell>
        <mxCell id="dMtqJhVQcQkY8aE9VR1s-64" value="" style="rounded=0;whiteSpace=wrap;html=1;" parent="1" vertex="1">
          <mxGeometry x="440" y="350" width="80" height="40" as="geometry" />
        </mxCell>
        <mxCell id="dMtqJhVQcQkY8aE9VR1s-65" value="" style="rounded=0;whiteSpace=wrap;html=1;" parent="1" vertex="1">
          <mxGeometry x="520" y="390" width="80" height="40" as="geometry" />
        </mxCell>
        <mxCell id="dMtqJhVQcQkY8aE9VR1s-66" value="" style="rounded=0;whiteSpace=wrap;html=1;" parent="1" vertex="1">
          <mxGeometry x="360" y="390" width="80" height="40" as="geometry" />
        </mxCell>
        <mxCell id="dMtqJhVQcQkY8aE9VR1s-67" value="" style="rounded=0;whiteSpace=wrap;html=1;" parent="1" vertex="1">
          <mxGeometry x="360" y="350" width="80" height="40" as="geometry" />
        </mxCell>
        <mxCell id="dMtqJhVQcQkY8aE9VR1s-68" value="" style="rounded=0;whiteSpace=wrap;html=1;" parent="1" vertex="1">
          <mxGeometry x="280" y="350" width="80" height="40" as="geometry" />
        </mxCell>
        <mxCell id="dMtqJhVQcQkY8aE9VR1s-69" value="&lt;b&gt;&lt;font style=&quot;font-size: 18px&quot;&gt;n&lt;/font&gt;&lt;/b&gt;" style="rounded=0;whiteSpace=wrap;html=1;sketch=1;strokeWidth=2;" parent="1" vertex="1">
          <mxGeometry x="520" y="190" width="80" height="40" as="geometry" />
        </mxCell>
        <mxCell id="dMtqJhVQcQkY8aE9VR1s-70" value="" style="rounded=0;whiteSpace=wrap;html=1;sketch=1;strokeWidth=2;" parent="1" vertex="1">
          <mxGeometry x="520" y="230" width="80" height="40" as="geometry" />
        </mxCell>
        <mxCell id="dMtqJhVQcQkY8aE9VR1s-71" value="&lt;font style=&quot;font-size: 18px&quot;&gt;&lt;b&gt;......&lt;/b&gt;&lt;/font&gt;" style="rounded=0;whiteSpace=wrap;html=1;sketch=1;strokeWidth=2;" parent="1" vertex="1">
          <mxGeometry x="440" y="230" width="80" height="40" as="geometry" />
        </mxCell>
        <mxCell id="dMtqJhVQcQkY8aE9VR1s-72" value="" style="rounded=0;whiteSpace=wrap;html=1;sketch=1;strokeWidth=2;" parent="1" vertex="1">
          <mxGeometry x="440" y="270" width="80" height="40" as="geometry" />
        </mxCell>
        <mxCell id="dMtqJhVQcQkY8aE9VR1s-73" value="&lt;font style=&quot;font-size: 18px&quot;&gt;&lt;b&gt;i&lt;/b&gt;&lt;/font&gt;" style="rounded=0;whiteSpace=wrap;html=1;sketch=1;strokeWidth=2;" parent="1" vertex="1">
          <mxGeometry x="360" y="270" width="80" height="40" as="geometry" />
        </mxCell>
        <mxCell id="dMtqJhVQcQkY8aE9VR1s-74" value="" style="rounded=0;whiteSpace=wrap;html=1;sketch=1;strokeWidth=2;" parent="1" vertex="1">
          <mxGeometry x="360" y="310" width="80" height="40" as="geometry" />
        </mxCell>
        <mxCell id="dMtqJhVQcQkY8aE9VR1s-75" value="" style="rounded=0;whiteSpace=wrap;html=1;sketch=1;strokeWidth=2;" parent="1" vertex="1">
          <mxGeometry x="520" y="310" width="80" height="40" as="geometry" />
        </mxCell>
        <mxCell id="dMtqJhVQcQkY8aE9VR1s-76" value="" style="rounded=0;whiteSpace=wrap;html=1;sketch=1;strokeWidth=2;" parent="1" vertex="1">
          <mxGeometry x="520" y="350" width="80" height="40" as="geometry" />
        </mxCell>
        <mxCell id="dMtqJhVQcQkY8aE9VR1s-77" value="" style="rounded=0;whiteSpace=wrap;html=1;sketch=1;strokeWidth=2;" parent="1" vertex="1">
          <mxGeometry x="440" y="350" width="80" height="40" as="geometry" />
        </mxCell>
        <mxCell id="dMtqJhVQcQkY8aE9VR1s-78" value="" style="rounded=0;whiteSpace=wrap;html=1;sketch=1;strokeWidth=2;" parent="1" vertex="1">
          <mxGeometry x="520" y="390" width="80" height="40" as="geometry" />
        </mxCell>
        <mxCell id="dMtqJhVQcQkY8aE9VR1s-79" value="" style="rounded=0;whiteSpace=wrap;html=1;sketch=1;strokeWidth=2;" parent="1" vertex="1">
          <mxGeometry x="360" y="390" width="80" height="40" as="geometry" />
        </mxCell>
        <mxCell id="dMtqJhVQcQkY8aE9VR1s-80" value="" style="rounded=0;whiteSpace=wrap;html=1;sketch=1;strokeWidth=2;" parent="1" vertex="1">
          <mxGeometry x="360" y="350" width="80" height="40" as="geometry" />
        </mxCell>
        <mxCell id="dMtqJhVQcQkY8aE9VR1s-81" value="" style="rounded=0;whiteSpace=wrap;html=1;sketch=1;strokeWidth=2;" parent="1" vertex="1">
          <mxGeometry x="280" y="350" width="80" height="40" as="geometry" />
        </mxCell>
        <mxCell id="dMtqJhVQcQkY8aE9VR1s-82" value="&lt;font style=&quot;font-size: 18px&quot;&gt;&lt;b&gt;i-1&lt;/b&gt;&lt;/font&gt;" style="rounded=0;whiteSpace=wrap;html=1;sketch=1;strokeWidth=2;" parent="1" vertex="1">
          <mxGeometry x="280" y="310" width="80" height="40" as="geometry" />
        </mxCell>
        <mxCell id="dMtqJhVQcQkY8aE9VR1s-83" value="&lt;font style=&quot;font-size: 18px&quot;&gt;&lt;b&gt;i-2&lt;/b&gt;&lt;/font&gt;" style="rounded=0;whiteSpace=wrap;html=1;sketch=1;strokeWidth=2;" parent="1" vertex="1">
          <mxGeometry x="200" y="350" width="80" height="40" as="geometry" />
        </mxCell>
        <mxCell id="dMtqJhVQcQkY8aE9VR1s-84" value="" style="rounded=0;whiteSpace=wrap;html=1;sketch=1;strokeWidth=2;" parent="1" vertex="1">
          <mxGeometry x="120" y="430" width="80" height="40" as="geometry" />
        </mxCell>
        <mxCell id="dMtqJhVQcQkY8aE9VR1s-85" value="" style="rounded=0;whiteSpace=wrap;html=1;sketch=1;strokeWidth=2;" parent="1" vertex="1">
          <mxGeometry x="200" y="430" width="80" height="40" as="geometry" />
        </mxCell>
        <mxCell id="dMtqJhVQcQkY8aE9VR1s-86" value="" style="rounded=0;whiteSpace=wrap;html=1;sketch=1;strokeWidth=2;" parent="1" vertex="1">
          <mxGeometry x="280" y="430" width="80" height="40" as="geometry" />
        </mxCell>
        <mxCell id="dMtqJhVQcQkY8aE9VR1s-87" value="" style="rounded=0;whiteSpace=wrap;html=1;sketch=1;strokeWidth=2;" parent="1" vertex="1">
          <mxGeometry x="360" y="430" width="80" height="40" as="geometry" />
        </mxCell>
        <mxCell id="dMtqJhVQcQkY8aE9VR1s-88" value="" style="rounded=0;whiteSpace=wrap;html=1;sketch=1;strokeWidth=2;" parent="1" vertex="1">
          <mxGeometry x="440" y="430" width="80" height="40" as="geometry" />
        </mxCell>
        <mxCell id="dMtqJhVQcQkY8aE9VR1s-89" value="" style="rounded=0;whiteSpace=wrap;html=1;sketch=1;strokeWidth=2;" parent="1" vertex="1">
          <mxGeometry x="520" y="430" width="80" height="40" as="geometry" />
        </mxCell>
        <mxCell id="dMtqJhVQcQkY8aE9VR1s-90" value="&lt;font style=&quot;font-size: 18px&quot;&gt;&lt;b&gt;1&lt;/b&gt;&lt;/font&gt;" style="rounded=0;whiteSpace=wrap;html=1;sketch=1;strokeWidth=2;" parent="1" vertex="1">
          <mxGeometry x="40" y="430" width="80" height="40" as="geometry" />
        </mxCell>
        <mxCell id="dMtqJhVQcQkY8aE9VR1s-91" value="" style="curved=1;endArrow=classic;html=1;exitX=0.375;exitY=-0.115;exitDx=0;exitDy=0;exitPerimeter=0;sketch=1;strokeWidth=2;" parent="1" source="dMtqJhVQcQkY8aE9VR1s-83" edge="1">
          <mxGeometry width="50" height="50" relative="1" as="geometry">
            <mxPoint x="190" y="310" as="sourcePoint" />
            <mxPoint x="380" y="240" as="targetPoint" />
            <Array as="points">
              <mxPoint x="220" y="300" />
              <mxPoint x="300" y="190" />
            </Array>
          </mxGeometry>
        </mxCell>
        <mxCell id="dMtqJhVQcQkY8aE9VR1s-92" value="" style="curved=1;endArrow=classic;html=1;exitX=0.25;exitY=0;exitDx=0;exitDy=0;sketch=1;strokeWidth=2;" parent="1" source="dMtqJhVQcQkY8aE9VR1s-82" edge="1">
          <mxGeometry width="50" height="50" relative="1" as="geometry">
            <mxPoint x="300" y="295" as="sourcePoint" />
            <mxPoint x="380" y="255" as="targetPoint" />
            <Array as="points">
              <mxPoint x="320" y="205" />
            </Array>
          </mxGeometry>
        </mxCell>
        <mxCell id="dMtqJhVQcQkY8aE9VR1s-93" value="&lt;font style=&quot;font-size: 18px&quot;&gt;&lt;b&gt;要到达第i个台阶&lt;/b&gt;&lt;/font&gt;" style="text;html=1;strokeColor=none;fillColor=none;align=center;verticalAlign=middle;whiteSpace=wrap;rounded=0;sketch=1;" parent="1" vertex="1">
          <mxGeometry x="70" y="180" width="140" as="geometry" />
        </mxCell>
        <mxCell id="dMtqJhVQcQkY8aE9VR1s-94" value="&lt;font style=&quot;font-size: 18px&quot;&gt;&lt;b&gt;可以从第i-1个台阶跳上去&lt;/b&gt;&lt;/font&gt;" style="text;html=1;strokeColor=none;fillColor=none;align=center;verticalAlign=middle;whiteSpace=wrap;rounded=0;sketch=1;" parent="1" vertex="1">
          <mxGeometry x="30" y="210" width="220" as="geometry" />
        </mxCell>
        <mxCell id="dMtqJhVQcQkY8aE9VR1s-95" value="&lt;font style=&quot;font-size: 18px&quot;&gt;&lt;b&gt;也可以从第i-2个台阶跳上去&lt;/b&gt;&lt;/font&gt;" style="text;html=1;strokeColor=none;fillColor=none;align=center;verticalAlign=middle;whiteSpace=wrap;rounded=0;sketch=1;" parent="1" vertex="1">
          <mxGeometry x="20" y="240" width="240" as="geometry" />
        </mxCell>
      </root>
    </mxGraphModel>
  </diagram>
</mxfile>
